<?xml version="1.0" encoding="UTF-8"?>
<!--Generator: Apple Native CoreSVG 232.5-->
<!DOCTYPE svg
PUBLIC "-//W3C//DTD SVG 1.1//EN"
       "http://www.w3.org/Graphics/SVG/1.1/DTD/svg11.dtd">
<svg version="1.1" xmlns="http://www.w3.org/2000/svg" xmlns:xlink="http://www.w3.org/1999/xlink" width="25.8008" height="25.459">
 <g>
  <rect height="25.459" opacity="0" width="25.8008" x="0" y="0"/>
  <path d="M12.7148 25.4395C19.6777 25.4395 25.4395 19.6777 25.4395 12.7246C25.4395 5.76172 19.668 0 12.7051 0C5.75195 0 0 5.76172 0 12.7246C0 19.6777 5.76172 25.4395 12.7148 25.4395ZM12.7148 23.623C6.67969 23.623 1.82617 18.7598 1.82617 12.7246C1.82617 6.67969 6.66992 1.82617 12.7051 1.82617C18.75 1.82617 23.6133 6.67969 23.6133 12.7246C23.6133 18.7598 18.7598 23.623 12.7148 23.623Z" fill="#808080"/>
  <path d="M19.1895 12.7051C19.1895 12.4805 19.1016 12.2949 18.8867 12.0801L14.4824 7.66602C14.3359 7.51953 14.1406 7.44141 13.916 7.44141C13.4668 7.44141 13.1348 7.7832 13.1348 8.22266C13.1348 8.45703 13.2324 8.65234 13.3887 8.79883L15.2148 10.625L16.7578 11.9824L14.3066 11.8945L7.02148 11.8945C6.55273 11.8945 6.21094 12.2266 6.21094 12.7148C6.21094 13.1738 6.54297 13.5156 7.02148 13.5156L14.3066 13.5156L16.7676 13.4375L15.2148 14.7949L13.3887 16.6113C13.2227 16.7578 13.1348 16.9531 13.1348 17.1875C13.1348 17.627 13.4668 17.9785 13.916 17.9785C14.1406 17.9785 14.3359 17.8906 14.4824 17.7441L18.8867 13.3398C19.082 13.1348 19.1895 12.9492 19.1895 12.7051Z" fill="#808080"/>
 </g>
</svg>
