<?xml version="1.0" encoding="UTF-8"?>
<!--Generator: Apple Native CoreSVG 232.5-->
<!DOCTYPE svg
PUBLIC "-//W3C//DTD SVG 1.1//EN"
       "http://www.w3.org/Graphics/SVG/1.1/DTD/svg11.dtd">
<svg version="1.1" xmlns="http://www.w3.org/2000/svg" xmlns:xlink="http://www.w3.org/1999/xlink" width="25.8008" height="25.459">
 <g>
  <rect height="25.459" opacity="0" width="25.8008" x="0" y="0"/>
  <path d="M12.7148 25.4395C19.6777 25.4395 25.4395 19.6777 25.4395 12.7246C25.4395 5.76172 19.668 0 12.7051 0C5.75195 0 0 5.76172 0 12.7246C0 19.6777 5.76172 25.4395 12.7148 25.4395ZM12.7148 23.623C6.67969 23.623 1.82617 18.7598 1.82617 12.7246C1.82617 6.67969 6.66992 1.82617 12.7051 1.82617C18.75 1.82617 23.6133 6.67969 23.6133 12.7246C23.6133 18.7598 18.7598 23.623 12.7148 23.623Z" fill="#000000"/>
  <path d="M4.9707 12.7246C4.9707 12.9297 5.04883 13.1836 5.33203 13.457L10.8496 18.6426C11.1328 18.8965 11.377 19.0332 11.6895 19.0332C12.1094 19.0332 12.4121 18.7305 12.4121 18.3008L12.4121 15.4004L18.291 15.4004C19.2676 15.4004 19.8242 14.8633 19.8242 13.916L19.8242 11.5527C19.8242 10.6055 19.2676 10.0684 18.291 10.0684L12.4121 10.0684L12.4121 7.17773C12.4121 6.75781 12.1094 6.41602 11.6699 6.41602C11.3672 6.41602 11.1621 6.54297 10.8496 6.8457L5.33203 11.9727C5.04883 12.2559 4.9707 12.5 4.9707 12.7246Z" fill="#000000"/>
 </g>
</svg>
