<?xml version="1.0" encoding="UTF-8"?>
<!--Generator: Apple Native CoreSVG 232.5-->
<!DOCTYPE svg
PUBLIC "-//W3C//DTD SVG 1.1//EN"
       "http://www.w3.org/Graphics/SVG/1.1/DTD/svg11.dtd">
<svg version="1.1" xmlns="http://www.w3.org/2000/svg" xmlns:xlink="http://www.w3.org/1999/xlink" width="25.8008" height="25.459">
 <g>
  <rect height="25.459" opacity="0" width="25.8008" x="0" y="0"/>
  <path d="M12.7148 25.4395C19.6777 25.4395 25.4395 19.6777 25.4395 12.7246C25.4395 5.76172 19.668 0 12.7051 0C5.75195 0 0 5.76172 0 12.7246C0 19.6777 5.76172 25.4395 12.7148 25.4395ZM12.7148 23.623C6.67969 23.623 1.82617 18.7598 1.82617 12.7246C1.82617 6.67969 6.66992 1.82617 12.7051 1.82617C18.75 1.82617 23.6133 6.67969 23.6133 12.7246C23.6133 18.7598 18.7598 23.623 12.7148 23.623Z" fill="#000000"/>
  <path d="M6.88477 19.1406L18.5254 19.1406C18.9746 19.1406 19.1895 18.8477 19.1895 18.418C19.1895 17.041 17.1191 13.3984 12.7051 13.3984C8.30078 13.3984 6.23047 17.041 6.23047 18.418C6.23047 18.8477 6.43555 19.1406 6.88477 19.1406ZM12.7051 12.373C14.4922 12.3828 15.9277 10.8691 15.9277 8.85742C15.9277 6.96289 14.4922 5.40039 12.7051 5.40039C10.918 5.40039 9.48242 6.96289 9.48242 8.85742C9.48242 10.8691 10.918 12.3633 12.7051 12.373Z" fill="#000000"/>
 </g>
</svg>
